<?xml version="1.0" standalone="no"?>
<!DOCTYPE svg PUBLIC "-//W3C//DTD SVG 20010904//EN"
 "http://www.w3.org/TR/2001/REC-SVG-20010904/DTD/svg10.dtd">
<svg version="1.0" xmlns="http://www.w3.org/2000/svg"
 width="1200.000000pt" height="630.000000pt" viewBox="0 0 1200.000000 630.000000"
 preserveAspectRatio="xMidYMid meet">

<g transform="translate(0.000000,630.000000) scale(0.100000,-0.100000)"
fill="#000000" stroke="none">
<path d="M6715 6254 c-230 -178 -430 -459 -490 -690 -18 -70 -19 -136 -3 -152
7 -7 41 -12 85 -12 83 0 102 12 122 82 7 23 26 54 41 70 28 27 31 28 137 28
72 0 115 4 125 13 9 6 48 85 86 174 40 94 94 198 127 249 57 86 167 206 235
257 l35 27 -220 0 -220 0 -60 -46z"/>
<path d="M7349 6269 c-93 -50 -224 -164 -290 -251 -125 -167 -165 -284 -156
-463 21 -424 279 -900 563 -1039 82 -40 197 -59 331 -54 119 5 125 7 283 96
l55 31 170 2 c94 1 194 -4 224 -10 29 -6 70 -11 90 -11 45 0 116 32 130 58 6
11 18 64 26 117 21 127 12 158 -52 186 -25 10 -61 32 -81 49 -33 27 -38 29
-59 15 -12 -8 -44 -15 -71 -15 -33 0 -74 -11 -128 -34 -122 -53 -346 -84 -373
-53 -9 11 8 17 89 31 79 14 121 28 202 69 206 104 214 116 212 352 -2 200 -21
321 -65 413 -25 51 -41 69 -92 104 -80 55 -138 76 -242 87 -96 11 -123 22
-129 54 -37 178 -49 208 -109 275 -20 22 -25 22 -246 22 l-226 -1 -56 -30z
m360 -42 c33 -22 50 -49 103 -154 73 -147 102 -176 217 -213 39 -12 70 -25 67
-27 -3 -3 -36 2 -75 11 -38 9 -83 16 -99 16 -34 0 -45 12 -97 100 -48 81 -99
137 -145 158 -25 12 -36 25 -38 44 -5 39 -23 49 -106 55 -42 3 -73 10 -70 14
10 17 71 28 136 25 53 -3 77 -9 107 -29z m-75 -368 c52 -15 33 -25 -61 -32
-131 -10 -169 -50 -232 -244 -43 -130 -67 -185 -57 -128 3 17 10 66 16 110 19
143 32 210 46 232 22 35 56 63 89 73 36 11 144 5 199 -11z m624 -69 c52 -32
72 -74 72 -155 -1 -39 -8 -88 -17 -110 -8 -22 -26 -70 -39 -107 -12 -37 -27
-76 -33 -86 -14 -26 -77 -35 -154 -22 -77 14 -96 7 -170 -58 -83 -72 -207
-134 -207 -104 0 5 20 23 45 41 74 53 161 138 194 189 16 26 44 81 61 122 38
89 56 113 70 90 5 -8 10 -27 10 -42 0 -17 7 -29 19 -33 27 -8 109 12 142 36
64 45 60 154 -8 224 -38 39 -34 44 15 15z m-486 -76 c58 -30 75 -122 37 -201
-19 -40 -154 -173 -176 -173 -5 0 14 25 43 56 88 95 124 193 86 228 -20 18
-21 17 -55 -56 -25 -55 -52 -91 -105 -143 -74 -72 -84 -95 -56 -127 16 -17 14
-19 -39 -43 l-56 -26 -44 19 c-53 23 -54 26 -67 91 -12 67 -3 91 68 167 31 34
72 86 90 115 39 63 82 96 143 108 50 10 91 5 131 -15z m579 -588 c-13 -13 -71
-46 -129 -73 -105 -47 -110 -48 -217 -51 -60 -1 -120 -5 -131 -7 -26 -6 -46
-53 -64 -150 -21 -110 -56 -175 -95 -175 -12 0 -10 8 10 38 18 27 31 73 48
174 13 76 32 148 41 162 22 34 72 42 159 25 61 -11 81 -11 147 3 43 9 106 30
141 46 35 17 75 31 88 31 l24 1 -22 -24z m-396 -331 c69 -41 140 -42 350 -6
201 35 232 37 259 16 17 -13 16 -14 -15 -19 -19 -3 -101 -17 -184 -32 -197
-35 -357 -42 -404 -17 -21 11 -40 31 -48 51 -7 17 -10 32 -7 32 3 0 25 -11 49
-25z"/>
<path d="M8127 5430 c-21 -4 -42 -11 -48 -17 -23 -23 24 -63 74 -63 37 0 67
28 67 61 0 25 -3 29 -27 28 -16 -1 -45 -5 -66 -9z"/>
<path d="M7620 5686 c-25 -18 -54 -46 -65 -62 -10 -16 -49 -61 -86 -101 -79
-83 -90 -112 -63 -162 21 -38 94 -80 79 -44 -5 10 -10 39 -13 66 -7 80 33 118
85 82 21 -15 25 -13 74 34 59 57 65 92 16 101 l-28 5 41 39 c70 66 38 100 -40
42z"/>
<path d="M6566 5491 c-27 -29 -34 -71 -41 -233 -3 -84 -13 -205 -22 -268 -35
-245 -17 -350 66 -406 33 -21 57 -28 114 -31 78 -5 114 1 226 42 40 14 85 25
99 23 l26 -3 -25 -28 c-32 -36 -121 -66 -236 -79 -114 -13 -200 4 -269 54 -67
48 -80 100 -65 277 15 183 14 403 -1 436 l-12 27 -136 -4 c-110 -3 -146 -8
-192 -27 -73 -28 -155 -102 -192 -173 -56 -105 -155 -244 -212 -298 -207 -196
-253 -245 -291 -309 -63 -104 -77 -163 -71 -296 5 -94 12 -129 48 -239 66
-202 204 -509 306 -684 56 -94 139 -192 163 -192 30 0 -7 104 -88 247 -22 40
-50 88 -60 107 -23 40 -89 196 -102 239 -4 15 -4 27 1 27 17 0 45 -47 296
-481 77 -134 98 -171 189 -344 175 -330 264 -381 685 -392 162 -4 251 0 427
16 122 12 244 21 271 21 75 0 77 4 77 205 0 147 -2 175 -18 198 l-18 27 -132
-6 c-125 -6 -134 -5 -176 16 -39 21 -57 23 -205 24 -88 1 -185 -1 -213 -4 -44
-4 -55 -1 -67 15 -8 11 -43 90 -77 175 -95 234 -393 820 -516 1015 -112 176
-135 215 -131 225 2 6 23 -2 48 -18 52 -33 140 -148 213 -278 84 -150 240
-441 325 -607 94 -182 127 -233 193 -299 60 -60 95 -77 188 -94 131 -23 136
-22 205 46 33 34 71 64 85 67 26 6 141 -6 296 -33 50 -8 153 -17 230 -20 168
-5 210 -18 281 -85 57 -53 56 -53 249 -73 232 -25 352 -84 559 -277 81 -76
119 -98 173 -106 67 -8 76 -15 97 -72 42 -119 70 -85 74 94 3 116 1 143 -22
228 -33 125 -75 208 -152 305 -85 106 -201 229 -248 264 -46 33 -72 35 -102 7
-26 -24 -27 -22 -39 66 -4 27 -13 62 -21 78 -13 25 -19 27 -49 21 l-35 -6 0
43 c0 24 7 85 16 134 9 50 17 131 18 180 1 81 -2 95 -26 136 -37 63 -92 110
-179 153 -102 50 -175 64 -221 42 -35 -17 -36 -16 -73 8 -50 34 -65 33 -105
-9 -38 -39 -60 -44 -77 -16 -20 32 -117 70 -285 112 -89 22 -177 48 -197 59
-141 72 -331 344 -510 730 -81 175 -133 256 -190 292 -54 34 -119 38 -145 9z
m110 -76 c24 -24 24 -26 18 -152 -5 -103 -3 -135 9 -163 14 -33 14 -38 -5 -72
-14 -24 -18 -45 -14 -62 6 -25 7 -25 47 -11 49 18 90 5 68 -21 -17 -21 -64
-44 -89 -44 -32 0 -77 51 -86 96 -4 24 0 88 11 166 17 119 16 169 -2 259 -7
36 9 38 43 4z m98 -657 l26 -23 -23 -39 c-28 -51 -39 -53 -57 -13 -12 25 -23
33 -50 37 -51 7 -46 32 10 47 63 16 66 16 94 -9z m-479 -176 c1 -89 5 -136 13
-144 7 -7 58 -15 122 -18 86 -5 114 -11 130 -25 23 -21 27 -73 5 -81 -8 -3
-51 8 -97 25 -46 16 -122 41 -169 55 -113 34 -117 43 -75 187 34 118 44 141
59 136 9 -3 12 -40 12 -135z"/>
<path d="M3516 4965 c-115 -41 -154 -174 -101 -349 13 -44 52 -173 86 -286 34
-113 80 -263 101 -335 74 -247 81 -266 112 -295 38 -38 72 -44 143 -26 33 9
96 21 139 26 43 6 94 16 112 21 30 10 32 13 32 57 0 80 -20 263 -37 345 -13
61 -14 80 -4 90 18 18 239 13 325 -7 38 -9 113 -34 168 -56 119 -48 166 -51
275 -14 56 19 109 28 186 33 89 5 111 9 122 24 7 10 18 57 25 105 18 132 28
171 66 238 19 33 34 66 34 72 0 32 -109 61 -480 127 -140 24 -280 51 -310 59
-30 8 -95 22 -145 31 -49 9 -228 47 -398 86 -316 71 -382 79 -451 54z"/>
<path d="M4250 4183 c-59 -23 -68 -87 -20 -135 29 -29 34 -30 100 -26 112 6
145 61 75 128 -29 28 -43 34 -87 36 -29 2 -60 1 -68 -3z"/>
<path d="M3315 4065 c-55 -13 -105 -24 -112 -24 -7 -1 -30 -18 -53 -39 -33
-32 -40 -46 -40 -76 0 -48 18 -82 68 -128 56 -52 62 -76 26 -105 -72 -58 -195
-174 -252 -238 -175 -196 -314 -455 -342 -636 -29 -197 -32 -232 -26 -379 11
-303 57 -493 173 -725 59 -116 119 -192 277 -350 163 -162 229 -216 461 -374
83 -56 215 -147 295 -202 80 -56 166 -112 193 -125 115 -59 340 -114 403 -98
31 8 45 42 35 81 -7 25 -13 29 -62 36 -30 4 -72 11 -94 16 l-40 7 40 12 c38
10 152 23 510 57 114 11 197 25 290 50 72 19 184 42 250 50 105 12 123 12 143
-1 39 -26 27 -42 -35 -49 -59 -7 -205 -35 -418 -79 -126 -26 -340 -61 -438
-71 l-57 -6 6 -63 c7 -66 -8 -161 -33 -210 -8 -16 -55 -70 -104 -121 -105
-108 -147 -187 -140 -262 1 -9 21 -13 64 -13 l64 0 12 43 c21 69 91 195 137
245 l43 47 1 -30 c0 -19 -14 -51 -35 -82 -19 -29 -55 -91 -80 -138 l-45 -85
547 0 548 0 -6 127 c-4 71 -10 136 -14 146 -5 12 -3 17 8 17 44 0 106 -216 78
-268 -11 -21 -10 -22 48 -22 l60 0 7 46 c3 25 4 73 1 106 -6 67 -36 120 -127
224 -105 120 -113 175 -42 322 22 45 43 105 47 132 4 31 13 54 23 59 10 5 186
11 392 15 1026 18 1445 34 1615 61 146 22 360 31 422 16 31 -8 76 -31 119 -62
75 -55 93 -57 150 -14 65 49 104 202 64 250 -22 26 -102 15 -305 -42 l-170
-48 -415 0 -415 0 -160 44 c-364 99 -298 92 -830 88 -554 -5 -720 -21 -1030
-97 -181 -45 -261 -52 -620 -57 -362 -4 -410 -10 -516 -63 -78 -40 -102 -37
-66 6 65 77 184 96 702 114 143 5 278 14 300 20 22 5 99 19 172 30 72 11 187
31 255 44 67 14 195 29 283 35 325 22 524 31 657 31 148 0 168 3 168 29 0 9
-52 77 -116 151 -177 205 -214 266 -305 499 -56 142 -89 198 -124 211 -33 13
-101 -9 -238 -76 l-112 -55 -125 1 c-69 1 -195 -2 -280 -6 -122 -5 -176 -3
-255 9 -55 9 -153 24 -217 32 -143 19 -250 46 -315 79 -92 46 -91 59 6 145
128 112 160 133 301 203 182 90 319 146 479 197 481 153 588 195 665 260 37
32 17 86 -145 410 -222 440 -306 584 -375 648 -101 93 -173 108 -346 69 -72
-16 -84 -16 -154 -2 -42 9 -88 16 -103 16 -58 0 -135 -82 -162 -172 -5 -18
-10 -67 -10 -109 -1 -68 3 -87 40 -172 66 -156 67 -221 1 -330 -43 -71 -66
-136 -104 -301 -32 -138 -84 -232 -183 -331 -245 -246 -549 -349 -926 -315
-346 32 -508 147 -524 371 -7 90 1 107 65 150 26 18 70 52 97 77 107 96 310
209 455 254 36 11 93 34 128 51 61 30 63 32 81 91 10 34 31 88 46 121 36 80
35 141 -4 275 -71 244 -122 352 -163 349 -7 0 -58 -11 -113 -24z m1635 -48 c0
-15 -113 -127 -128 -127 -17 0 -34 28 -30 52 2 17 20 32 67 56 70 35 91 39 91
19z m206 -117 c12 -14 35 -49 49 -78 l27 -54 -53 -54 c-29 -30 -61 -54 -69
-54 -33 0 -130 128 -130 171 0 24 11 37 62 74 67 48 67 48 114 -5z m-550 1
c21 -16 54 -45 73 -65 30 -31 33 -38 23 -60 -6 -13 -24 -32 -41 -42 -16 -9
-35 -28 -42 -41 -7 -12 -24 -30 -38 -39 -24 -17 -26 -16 -54 17 -26 31 -28 39
-25 99 4 64 37 160 56 160 5 0 27 -13 48 -29z m-1118 -124 c27 -47 62 -151 62
-187 0 -65 -83 -14 -139 85 -37 65 -38 81 -9 112 31 33 62 30 86 -10z m1448
-163 c77 -80 75 -97 -21 -169 -66 -50 -77 -55 -93 -43 -27 19 -122 139 -122
154 0 7 27 36 61 64 82 68 104 68 175 -6z m449 -110 c36 -74 39 -114 11 -114
-15 0 -119 115 -128 141 -4 9 -3 21 1 27 9 14 53 31 68 25 6 -2 28 -38 48 -79z
m-2017 -13 c28 -34 52 -65 52 -69 0 -20 -44 -75 -81 -102 -48 -34 -69 -37
-104 -14 -31 20 -105 130 -105 154 0 20 64 76 115 103 38 20 51 12 123 -72z
m1841 -140 c64 -74 66 -102 11 -131 -14 -7 -38 -28 -53 -46 -16 -19 -37 -34
-47 -34 -20 0 -105 94 -120 135 -10 27 1 65 19 65 5 0 28 16 52 34 62 49 78
46 138 -23z m-505 -84 l21 -38 -38 -34 c-114 -100 -150 -105 -155 -23 -3 40 1
49 39 92 37 41 46 47 76 44 29 -2 39 -10 57 -41z m-1672 16 c26 -24 23 -38
-22 -86 -64 -70 -140 -99 -140 -54 0 20 80 122 110 141 31 19 30 19 52 -1z
m1912 -199 c31 -34 56 -71 56 -82 0 -12 -14 -30 -32 -43 -18 -12 -47 -35 -64
-52 -41 -37 -57 -32 -116 36 -52 61 -62 84 -45 113 13 23 71 75 102 92 25 13
30 10 99 -64z m560 6 c47 -49 65 -74 59 -83 -10 -18 -133 -117 -144 -117 -27
0 -139 135 -139 168 0 16 112 100 136 101 13 1 45 -24 88 -69z m-832 -255 c26
-32 48 -69 48 -81 0 -13 -21 -41 -54 -73 -68 -63 -94 -66 -143 -15 -32 34 -73
103 -73 122 0 5 28 32 62 61 79 67 96 66 160 -14z m502 43 c9 -12 16 -28 16
-34 0 -6 -31 -23 -70 -36 -83 -30 -88 -21 -29 46 46 52 61 56 83 24z m-831
-274 c48 -47 46 -63 -13 -116 -73 -66 -101 -74 -140 -42 -44 38 -39 64 23 116
50 43 85 67 98 68 4 0 18 -12 32 -26z m-1583 -188 c0 -29 -24 -56 -51 -56 -24
0 -26 36 -2 62 24 27 53 23 53 -6z m1334 -106 c7 -35 -10 -144 -27 -171 -18
-29 -44 -33 -80 -10 -34 21 -84 77 -107 121 -12 23 -10 27 46 78 81 73 92 77
130 40 18 -16 34 -43 38 -58z m-1139 12 c56 -49 104 -112 98 -129 -9 -26 -73
-92 -107 -110 -23 -12 -33 -12 -57 -3 -34 14 -84 68 -106 115 -19 39 -12 52
56 109 48 40 84 46 116 18z m655 -91 c0 -3 -18 -31 -40 -61 -22 -30 -47 -65
-55 -77 -19 -27 -52 -29 -81 -5 -45 36 -104 114 -104 137 0 24 1 24 113 27
105 3 167 -5 167 -21z m-333 -184 c69 -69 77 -95 41 -126 -86 -73 -113 -91
-133 -91 -33 0 -135 114 -135 150 0 41 102 130 149 130 8 0 43 -28 78 -63z
m559 -3 c35 -31 64 -64 64 -72 0 -26 -121 -142 -148 -142 -37 0 -132 118 -132
165 0 24 102 104 133 104 11 1 48 -24 83 -55z m486 -25 c46 -17 93 -35 105
-40 40 -15 25 -29 -110 -101 -36 -19 -39 -20 -57 -3 -39 36 -68 175 -36 175 8
0 52 -14 98 -31z m1302 -54 c-1 -5 -33 -32 -72 -59 -71 -50 -71 -50 -93 -30
-26 23 -51 69 -42 78 4 3 25 6 47 7 23 0 59 4 81 9 49 10 80 8 79 -5z m-332
-132 c34 -34 58 -66 58 -78 0 -32 -110 -125 -148 -125 -20 0 -100 78 -121 118
-15 28 4 63 61 110 58 47 82 43 150 -25z m568 -5 c52 -79 51 -105 -2 -156 -46
-45 -82 -59 -105 -40 -27 22 -93 126 -93 147 0 28 98 110 133 111 23 0 34 -10
67 -62z m-2861 -18 c39 -39 71 -77 71 -85 0 -8 -10 -23 -22 -33 -11 -9 -39
-32 -60 -51 -36 -32 -40 -33 -57 -17 -32 29 -74 117 -75 158 -1 34 4 45 34 69
19 16 35 29 36 29 1 0 33 -32 73 -70z m1688 33 c15 -20 43 -51 61 -68 39 -38
40 -50 5 -72 -16 -9 -46 -32 -67 -50 -22 -18 -49 -33 -60 -33 -11 0 -45 26
-78 60 -68 69 -75 101 -30 142 46 42 75 58 109 58 25 0 38 -8 60 -37z m-616
-9 c13 -14 43 -39 66 -55 74 -52 74 -60 -5 -141 -65 -67 -70 -70 -93 -58 -29
16 -36 23 -82 83 -51 67 -49 94 11 151 26 25 54 46 63 46 8 0 26 -12 40 -26z
m-501 -61 l63 -77 -62 -58 c-76 -71 -101 -75 -152 -20 -93 97 -91 128 8 203
58 44 72 39 143 -48z m2022 -186 c35 -24 70 -55 78 -70 14 -25 13 -28 -25 -67
-55 -57 -119 -94 -150 -86 -27 7 -92 86 -101 123 -4 14 -3 33 2 44 8 18 110
98 126 99 4 0 35 -19 70 -43z m-2328 -7 c14 -22 44 -52 66 -66 22 -15 40 -34
40 -42 0 -25 -117 -132 -144 -132 -24 0 -111 83 -135 128 -12 23 -7 62 8 62 4
0 27 15 51 33 35 26 80 56 86 57 1 0 13 -18 28 -40z m1701 32 c17 -12 71 -84
88 -118 16 -31 15 -32 -16 -61 -48 -45 -88 -73 -103 -73 -19 0 -92 68 -110
101 -23 46 -17 65 38 113 50 44 80 55 103 38z m-528 -84 c35 -34 63 -68 63
-74 0 -19 -106 -113 -135 -120 -16 -4 -35 -2 -44 3 -23 15 -111 132 -111 148
0 21 112 105 140 105 17 0 44 -19 87 -62z m-576 1 c75 -65 76 -82 8 -154 -59
-62 -81 -73 -117 -54 -32 17 -102 124 -102 155 0 17 16 34 58 63 31 22 65 40
76 40 10 1 45 -22 77 -50z m2215 -35 c74 -81 91 -134 48 -151 -20 -8 -95 65
-125 123 -19 35 -21 45 -10 58 22 26 42 19 87 -30z m-157 -142 c11 -16 18 -32
14 -36 -15 -14 -153 3 -153 20 0 17 33 63 47 66 26 6 68 -17 92 -50z m-2356
-28 c18 -21 47 -53 64 -73 18 -20 33 -40 33 -45 0 -16 -125 -136 -141 -136
-19 0 -84 68 -117 122 -35 56 -27 77 48 126 35 23 68 42 73 42 5 0 23 -16 40
-36z m1184 -18 c50 -52 52 -56 41 -86 -15 -44 -46 -53 -147 -43 -75 7 -86 11
-105 36 l-20 27 59 60 c79 79 99 80 172 6z m514 28 c23 -24 23 -26 6 -39 -22
-16 -145 -50 -153 -42 -10 10 7 47 36 78 37 37 78 39 111 3z m-1102 -53 c34
-38 61 -78 61 -90 0 -21 -2 -21 -132 -15 -152 7 -171 15 -147 60 17 33 117
114 140 114 10 0 44 -31 78 -69z m2306 -177 c21 -21 15 -38 -16 -42 -14 -2
-31 -15 -41 -32 -22 -38 -50 -39 -117 -3 -50 25 -51 27 -34 46 15 16 26 18 66
14 37 -5 55 -2 80 13 39 24 41 24 62 4z m-791 -13 c20 -14 39 -17 67 -14 26 4
47 0 64 -11 34 -23 31 -36 -8 -36 -21 0 -41 -8 -52 -20 -25 -27 -41 -25 -85
10 -21 17 -47 30 -59 30 -28 0 -27 25 1 44 29 20 37 20 72 -3z m-462 -58 c27
-24 22 -43 -11 -43 -21 0 -36 -8 -51 -30 -20 -28 -23 -29 -95 -27 -61 2 -75 5
-75 18 0 29 37 51 100 58 35 4 68 14 77 24 22 21 32 21 55 0z m-769 -85 c12
-6 47 -12 77 -12 49 -1 55 -3 58 -23 3 -19 -1 -23 -23 -23 -15 0 -40 -11 -56
-24 -36 -31 -56 -26 -108 29 -38 39 -40 45 -24 54 24 14 50 14 76 -1z m-383
-55 l22 -28 -31 -3 c-24 -3 -37 -13 -56 -43 -29 -45 -43 -48 -73 -16 -25 26
-20 37 15 37 13 0 23 4 23 9 0 13 56 71 68 71 6 0 20 -12 32 -27z m551 -737
c-12 -18 -28 -39 -36 -46 -27 -23 -17 13 17 60 36 49 51 38 19 -14z"/>
<path d="M4231 3935 c-16 -14 -35 -41 -41 -60 -10 -30 -9 -41 10 -80 25 -51
70 -88 103 -83 20 3 22 8 23 68 0 36 6 82 14 102 12 34 12 39 -5 58 -25 27
-67 25 -104 -5z"/>
<path d="M4066 3639 c-197 -30 -305 -85 -372 -188 -26 -40 -29 -53 -29 -124 0
-85 13 -107 61 -107 35 0 52 25 59 87 10 97 18 115 63 150 68 52 136 68 288
68 158 0 163 -3 198 -114 13 -43 30 -77 38 -79 8 -1 26 7 41 18 23 19 27 29
27 76 0 158 -157 247 -374 213z"/>
<path d="M4040 3470 c-61 -13 -129 -49 -154 -83 -19 -26 -21 -46 -26 -210 -6
-209 -12 -228 -103 -324 -100 -106 -209 -152 -368 -156 -89 -2 -98 0 -156 31
-76 39 -108 41 -135 7 -15 -19 -29 -25 -59 -25 l-39 0 0 43 c0 53 -20 82 -64
97 -45 14 -110 -2 -130 -33 -28 -43 -40 -115 -26 -160 37 -126 164 -195 430
-232 224 -32 389 -8 617 88 157 66 359 231 413 337 45 89 75 296 60 418 -22
168 -106 234 -260 202z"/>
<path d="M3520 3187 c0 -52 116 -124 216 -134 l54 -6 0 37 c0 29 -5 38 -22 45
-13 5 -51 21 -85 35 -80 34 -163 46 -163 23z"/>
<path d="M7283 3171 c-52 -23 -57 -87 -11 -126 29 -25 38 -27 99 -23 67 4 112
24 87 39 -6 4 -34 11 -61 14 -26 4 -46 9 -43 12 3 3 40 13 82 22 43 9 79 21
81 27 8 24 -191 53 -234 35z"/>
<path d="M3300 3126 c0 -8 25 -37 56 -65 72 -66 286 -176 314 -161 42 22 30
79 -22 106 -18 9 -61 36 -96 61 -83 59 -120 73 -192 73 -45 0 -60 -4 -60 -14z"/>
<path d="M7791 3105 c-62 -36 -86 -68 -111 -146 -20 -60 -22 -85 -18 -201 5
-156 21 -201 95 -269 42 -38 48 -41 85 -35 22 4 52 13 66 20 l26 14 -48 43
c-82 75 -98 112 -104 243 -4 99 -2 118 16 159 25 56 70 81 165 92 66 8 80 24
51 57 -48 53 -151 64 -223 23z"/>
<path d="M3193 3065 c-18 -8 -33 -20 -33 -28 0 -28 97 -96 258 -179 75 -39 97
-46 113 -38 10 6 19 19 19 29 0 27 -176 174 -257 215 -39 19 -58 20 -100 1z"/>
<path d="M3022 2953 c-85 -30 -65 -62 83 -134 120 -58 227 -89 253 -73 29 18
26 52 -6 82 -36 33 -243 142 -268 141 -11 0 -38 -7 -62 -16z"/>
<path d="M7884 2952 c-41 -26 -55 -67 -61 -177 -4 -76 -1 -96 15 -125 31 -58
70 -72 187 -65 113 7 138 -1 117 -35 -21 -34 -6 -44 190 -128 25 -11 54 -33
64 -49 25 -38 28 -40 96 -47 58 -7 80 -20 103 -60 8 -14 18 -16 48 -11 51 10
91 45 143 126 29 45 56 74 84 90 45 25 70 62 70 102 0 26 -26 52 -146 146
-244 191 -367 235 -694 246 -173 6 -187 5 -216 -13z"/>
<path d="M5800 2894 c-30 -14 -80 -34 -110 -44 -30 -10 -104 -40 -165 -65 -60
-26 -180 -69 -265 -97 -204 -66 -357 -124 -394 -150 -80 -55 -201 -166 -227
-207 -26 -40 -27 -47 -14 -60 13 -13 22 -13 67 -1 29 7 87 27 128 45 86 37
114 46 227 70 96 21 120 15 137 -34 40 -120 377 -41 546 129 54 54 78 89 138
206 75 148 85 189 54 217 -26 23 -58 21 -122 -9z"/>
<path d="M5969 2747 c-37 -28 -66 -118 -75 -231 -6 -65 -5 -78 7 -74 16 5 22
16 90 161 28 60 49 118 47 130 -4 26 -44 34 -69 14z"/>
<path d="M6024 2514 c-68 -149 -98 -333 -76 -455 24 -125 191 -409 326 -556
104 -112 293 -230 471 -291 104 -37 304 -81 414 -93 63 -6 212 -9 371 -6 347
6 423 25 318 78 -35 18 -75 24 -225 35 -411 29 -633 79 -858 191 -157 78 -228
128 -338 233 -110 104 -172 192 -216 301 -38 94 -49 163 -60 379 -10 182 -21
234 -51 250 -33 18 -41 11 -76 -66z"/>
<path d="M8060 2460 c-14 -4 -54 -22 -89 -41 -81 -43 -154 -46 -249 -10 -62
23 -68 24 -295 18 -201 -5 -748 -45 -845 -62 -101 -18 -96 -128 14 -334 103
-195 172 -249 453 -358 189 -72 243 -85 586 -133 219 -32 257 -52 318 -173 43
-83 76 -119 126 -136 93 -31 150 -3 300 142 64 63 139 129 166 147 96 64 210
154 274 214 91 88 261 319 261 356 0 8 -9 32 -20 55 l-20 40 -222 0 -223 0
-85 47 c-47 26 -111 56 -142 68 -34 12 -80 41 -110 69 -87 77 -147 105 -198
91z"/>
<path d="M6218 2438 c-17 -32 -23 -248 -8 -318 35 -165 111 -300 242 -426 130
-126 283 -214 503 -288 271 -91 576 -136 763 -112 101 13 114 21 110 71 -6 60
-98 97 -353 140 -260 43 -450 98 -610 176 -70 34 -105 60 -174 128 -124 122
-176 218 -232 426 -27 102 -43 128 -93 156 -23 12 -55 32 -73 45 -40 30 -59
30 -75 2z"/>
<path d="M4543 2434 c-35 -18 -201 -153 -247 -202 -17 -18 -26 -37 -23 -46 16
-41 119 -68 312 -81 55 -4 144 -13 197 -21 127 -18 263 -18 389 1 78 12 115
13 166 5 85 -14 124 -2 308 93 120 62 140 76 143 98 2 15 -5 32 -17 43 -20 18
-24 17 -157 -24 -138 -43 -201 -53 -376 -64 l-96 -6 -24 42 c-36 67 -39 67
-349 -28 -180 -55 -239 -65 -239 -40 0 7 15 56 34 109 31 83 37 137 17 137 -3
0 -20 -8 -38 -16z"/>
<path d="M9024 2416 c-70 -31 -59 -61 69 -190 114 -115 165 -147 237 -148 48
0 90 15 90 32 0 5 -59 69 -131 142 -73 73 -138 143 -146 155 -18 27 -69 30
-119 9z"/>
<path d="M8875 2322 c-25 -5 -55 -31 -55 -48 0 -7 16 -25 35 -40 54 -41 93
-24 85 36 -3 25 -43 57 -65 52z"/>
<path d="M8005 903 c-35 -38 -131 -199 -149 -250 -13 -38 -13 -44 0 -57 13
-14 19 -13 52 2 92 41 203 147 218 207 7 28 -17 76 -52 104 -34 27 -38 26 -69
-6z"/>
<path d="M7748 900 c-96 -17 -422 -33 -693 -34 -154 -1 -286 -5 -292 -9 -19
-12 -16 -39 18 -166 48 -177 34 -224 -116 -389 -93 -104 -132 -172 -142 -250
l-6 -52 42 0 c33 0 41 3 41 19 0 26 35 103 82 181 46 75 76 110 95 110 23 0
14 -31 -31 -99 -24 -36 -60 -99 -80 -138 l-36 -73 654 0 c402 0 657 4 661 9 3
6 8 45 12 89 5 72 3 84 -23 142 -16 35 -53 93 -82 129 -92 113 -105 140 -100
224 2 56 10 84 33 127 57 108 66 128 68 156 2 26 -1 29 -28 31 -16 0 -51 -3
-77 -7z m28 -612 c34 -40 56 -100 61 -174 5 -69 5 -72 -20 -89 -33 -21 -60 -8
-73 37 -10 38 -7 248 5 248 4 0 16 -10 27 -22z m-926 -115 c0 -12 -45 -73 -57
-78 -21 -8 -15 14 15 51 25 32 42 43 42 27z"/>
<path d="M5800 861 c-106 -21 -220 -132 -220 -214 0 -22 5 -25 68 -30 37 -4
191 -9 342 -13 231 -5 291 -4 375 10 55 9 149 16 210 16 61 -1 116 -1 123 -1
17 1 16 112 -2 154 -28 67 -38 70 -234 74 -97 1 -278 4 -402 7 -124 2 -241 1
-260 -3z m740 -97 c0 -8 -9 -14 -20 -14 -11 0 -30 -11 -42 -25 -13 -15 -32
-25 -47 -25 -15 0 -43 11 -63 25 -20 14 -42 25 -49 25 -8 0 -8 5 2 16 11 13
25 15 74 10 33 -3 74 -2 90 3 35 9 55 4 55 -15z m-510 -24 c0 -6 -9 -10 -21
-10 -12 0 -34 -11 -51 -25 -38 -32 -57 -31 -120 4 -47 27 -49 30 -30 40 26 14
54 14 84 1 17 -8 34 -7 63 3 40 14 75 8 75 -13z"/>
<path d="M8395 533 c-104 -14 -266 -47 -334 -68 -104 -33 -106 -41 -52 -162
46 -102 52 -163 26 -249 -8 -27 -15 -50 -15 -51 0 -2 139 -3 309 -3 l309 0 7
45 c12 80 -3 150 -46 214 -36 53 -39 64 -39 125 0 134 -35 166 -165 149z m63
-123 c5 -30 -37 -41 -182 -47 -79 -3 -155 -3 -169 1 -33 8 -35 30 -4 51 32 22
350 18 355 -5z m-38 -133 c14 -7 26 -22 28 -35 3 -22 2 -22 -127 -22 -122 0
-132 1 -157 23 -19 17 -25 29 -20 42 6 16 16 17 129 11 67 -4 133 -13 147 -19z
m-69 -151 c126 -25 164 -44 172 -81 4 -23 1 -25 -37 -25 -97 0 -273 67 -297
112 -8 15 -6 18 18 18 15 -1 80 -11 144 -24z"/>
<path d="M5953 510 c-130 -19 -214 -44 -239 -71 -13 -15 -13 -23 6 -75 74
-203 81 -257 45 -346 -6 -16 15 -17 310 -18 l318 0 -5 85 c-4 75 -9 95 -46
168 -31 64 -42 98 -47 152 -3 44 -12 79 -24 95 -17 23 -25 25 -107 26 -49 1
-144 -6 -211 -16z m201 -234 c64 -41 8 -57 -162 -47 -77 5 -96 9 -108 25 -33
45 -23 49 115 44 99 -4 136 -9 155 -22z m-72 -145 c110 -23 165 -46 174 -74
10 -33 -8 -39 -81 -27 -88 14 -215 63 -245 95 l-23 25 40 0 c23 0 83 -9 135
-19z"/>
</g>
</svg>
